<svg width="416" height="362" viewBox="0 0 416 362" fill="none" xmlns="http://www.w3.org/2000/svg">
<circle cx="206.497" cy="178.5" r="176.5" stroke="black" stroke-linecap="round" stroke-dasharray="18 18"/>
<path d="M112.551 34.5724L130.523 34.6718C130.782 34.673 131.036 34.6038 131.259 34.4717C131.481 34.3396 131.663 34.1494 131.786 33.9214C131.909 33.6935 131.967 33.4363 131.955 33.1772C131.944 32.9182 131.862 32.667 131.719 32.4504L118.749 12.8276C118.61 12.617 118.418 12.4466 118.192 12.3338C117.966 12.2209 117.715 12.1696 117.464 12.185C117.212 12.2004 116.97 12.282 116.76 12.4214C116.551 12.5609 116.382 12.7533 116.271 12.9793L108.594 28.587" fill="#CDBA86"/>
<path d="M96.7012 20.9673L72.8405 36.7384C70.2049 38.4804 69.4853 42.0364 71.2333 44.6809L83.893 63.8344C85.641 66.479 89.1945 67.2106 91.8301 65.4686L115.691 49.6975C118.326 47.9555 119.046 44.3995 117.298 41.755L104.638 22.6015C102.89 19.957 99.3368 19.2253 96.7012 20.9673Z" fill="#CDBA86"/>
<path d="M112.551 34.5724L130.523 34.6718C130.782 34.673 131.036 34.6038 131.259 34.4717C131.481 34.3396 131.663 34.1494 131.786 33.9214C131.909 33.6935 131.967 33.4363 131.955 33.1772C131.944 32.9182 131.862 32.667 131.719 32.4504L118.749 12.8276C118.61 12.617 118.418 12.4466 118.192 12.3338C117.966 12.2209 117.715 12.1696 117.464 12.185C117.212 12.2004 116.97 12.282 116.76 12.4214C116.551 12.5609 116.382 12.7533 116.271 12.9793L108.594 28.587M72.8405 36.7384L96.7012 20.9673C99.3368 19.2253 102.89 19.957 104.638 22.6015L117.298 41.755C119.046 44.3995 118.326 47.9555 115.691 49.6975L91.8301 65.4686C89.1945 67.2106 85.641 66.479 83.893 63.8344L71.2333 44.6809C69.4853 42.0364 70.2049 38.4804 72.8405 36.7384Z" stroke="black" stroke-width="2" stroke-linecap="round" stroke-linejoin="round"/>
<path d="M326.45 20.4288L315.619 12.3514L305.32 14.8608L298.822 10.0144C297.673 9.15751 296.228 8.79563 294.805 9.00838C293.382 9.22113 292.097 9.99109 291.234 11.1489L276.583 30.7932C275.72 31.951 275.348 33.4017 275.55 34.8263C275.752 36.2509 276.511 37.5326 277.66 38.3895L312.318 64.2371C313.467 65.094 314.912 65.4559 316.335 65.2431C317.758 65.0304 319.042 64.2604 319.906 63.1027L334.556 43.4583C335.42 42.3005 335.792 40.8498 335.59 39.4252C335.388 38.0006 334.629 36.7189 333.48 35.862L326.981 31.0156L326.45 20.4288Z" fill="#CDBA86"/>
<path d="M301.5 42.5825C305.089 45.2591 310.185 44.4972 312.882 40.8808C315.579 37.2644 314.856 32.1629 311.267 29.4863C307.678 26.8097 302.582 27.5716 299.885 31.188C297.188 34.8044 297.911 39.9059 301.5 42.5825Z" fill="#CDBA86"/>
<path d="M326.45 20.4288L315.619 12.3514L305.32 14.8608L298.822 10.0144C297.673 9.15751 296.228 8.79563 294.805 9.00838C293.382 9.22113 292.097 9.99109 291.234 11.1489L276.583 30.7932C275.72 31.951 275.348 33.4017 275.55 34.8263C275.752 36.2509 276.511 37.5326 277.66 38.3895L312.318 64.2371C313.467 65.094 314.912 65.4559 316.335 65.2431C317.758 65.0304 319.042 64.2604 319.906 63.1027L334.556 43.4583C335.42 42.3005 335.792 40.8498 335.59 39.4252C335.388 38.0006 334.629 36.7189 333.48 35.862L326.981 31.0156L326.45 20.4288Z" stroke="black" stroke-width="2" stroke-linecap="round" stroke-linejoin="round"/>
<path d="M301.5 42.5825C305.089 45.2591 310.185 44.4972 312.882 40.8808C315.579 37.2644 314.856 32.1629 311.267 29.4863C307.678 26.8097 302.582 27.5716 299.885 31.188C297.188 34.8044 297.911 39.9059 301.5 42.5825Z" stroke="black" stroke-width="2" stroke-linecap="round" stroke-linejoin="round"/>
<path d="M378.395 189.75C381.445 190.367 383.58 191.908 386.02 194.375C388.765 197.458 392.73 199 396.695 199C401.549 199 406.203 197.051 409.635 193.581C413.067 190.112 414.995 185.407 414.995 180.5C414.995 175.593 413.067 170.888 409.635 167.419C406.203 163.949 401.549 162 396.695 162C393.645 162 389.985 162.617 386.02 166.625C383.885 168.783 381.445 170.633 378.395 171.25" fill="#CDBA86"/>
<path d="M366.195 171.25V189.75Z" fill="#CDBA86"/>
<path d="M353.995 174.333V186.667Z" fill="#CDBA86"/>
<path d="M378.395 189.75C381.445 190.367 383.58 191.908 386.02 194.375C388.765 197.458 392.73 199 396.695 199C401.549 199 406.203 197.051 409.635 193.581C413.067 190.112 414.995 185.407 414.995 180.5C414.995 175.593 413.067 170.888 409.635 167.419C406.203 163.949 401.549 162 396.695 162C393.645 162 389.985 162.617 386.02 166.625C383.885 168.783 381.445 170.633 378.395 171.25M366.195 171.25V189.75M353.995 174.333V186.667" stroke="black" stroke-width="2" stroke-linecap="round" stroke-linejoin="round"/>
<path d="M11.2815 158.056L24.0477 202.416L17.8565 204.719C15.0196 205.484 12.189 203.931 11.4228 201.351L1.2081 166.533C0.4426 163.696 1.99647 160.866 4.57562 160.1L11.2815 158.056Z" fill="#CDBA86"/>
<path d="M9.38056 194.13L19.4526 186.168Z" fill="#CDBA86"/>
<path d="M4.5271 178.139L14.8569 170.178Z" fill="#CDBA86"/>
<path d="M24.0477 202.416L24.1724 156.029L44.789 156.084C46.156 156.088 47.4655 156.635 48.4295 157.604C49.3934 158.573 49.9329 159.885 49.9293 161.252L49.8322 197.331C49.8286 198.698 49.282 200.008 48.3128 200.972C47.3436 201.936 46.0312 202.475 44.6642 202.472L24.0477 202.416Z" fill="#CDBA86"/>
<path d="M24.0477 202.416L11.2815 158.056L4.57562 160.1C1.99647 160.866 0.4426 163.696 1.2081 166.533L11.4228 201.351C12.189 203.931 15.0196 205.484 17.8565 204.719L24.0477 202.416ZM24.0477 202.416L24.1724 156.029L44.789 156.084C46.156 156.088 47.4655 156.635 48.4295 157.604C49.3934 158.573 49.9329 159.885 49.9293 161.252L49.8322 197.331C49.8286 198.698 49.282 200.008 48.3128 200.972C47.3436 201.936 46.0312 202.475 44.6642 202.472L24.0477 202.416ZM9.38056 194.13L19.4526 186.168M4.5271 178.139L14.8569 170.178" stroke="black" stroke-width="2" stroke-linecap="round" stroke-linejoin="round"/>
<path d="M86.6122 343.773L108.911 358.605C111.374 360.243 114.705 359.566 116.35 357.092L140.184 321.258C141.83 318.785 141.167 315.451 138.704 313.813L116.405 298.981C113.942 297.343 110.611 298.02 108.966 300.494L85.1317 336.328C83.4863 338.801 84.1491 342.135 86.6122 343.773Z" fill="#CDBA86"/>
<path d="M121.596 315.355L121.573 315.341Z" fill="#CDBA86"/>
<path d="M121.596 315.355L121.573 315.341M108.911 358.605L86.6122 343.773C84.1491 342.135 83.4863 338.801 85.1317 336.328L108.966 300.494C110.611 298.02 113.942 297.343 116.405 298.981L138.704 313.813C141.167 315.451 141.83 318.785 140.184 321.258L116.35 357.092C114.705 359.566 111.374 360.243 108.911 358.605Z" stroke="black" stroke-width="2" stroke-linecap="round" stroke-linejoin="round"/>
<path d="M298.833 341.64C292.321 344.99 287.191 350.519 284.336 357.264C284.152 357.671 283.857 358.019 283.486 358.268C283.115 358.517 282.681 358.657 282.235 358.674C281.788 358.69 281.345 358.582 280.957 358.361C280.568 358.14 280.248 357.815 280.033 357.423L266.156 332.073C265.941 331.681 265.84 331.236 265.863 330.79C265.886 330.343 266.034 329.912 266.288 329.545C266.543 329.177 266.895 328.888 267.305 328.71C267.714 328.531 268.166 328.47 268.608 328.534C275.829 329.763 283.251 328.421 289.581 324.74L302.249 317.805C303.369 317.192 304.686 317.05 305.912 317.408C307.138 317.767 308.171 318.598 308.784 319.719L313.41 328.169C314.023 329.289 314.167 330.608 313.809 331.834C313.451 333.059 312.62 334.092 311.5 334.706L298.833 341.64Z" fill="#CDBA86"/>
<path d="M300.137 318.961C297.135 313.476 292.435 309.113 286.744 306.525C285.581 305.997 284.256 305.952 283.061 306.4C281.866 306.848 280.898 307.754 280.37 308.916C279.842 310.079 279.798 311.404 280.246 312.6C280.695 313.796 281.601 314.765 282.763 315.294C286.557 317.019 289.691 319.928 291.692 323.584" fill="#CDBA86"/>
<path d="M305.167 338.173L295.915 321.273Z" fill="#CDBA86"/>
<path d="M300.137 318.961C297.135 313.476 292.435 309.113 286.744 306.525C285.581 305.997 284.256 305.952 283.061 306.4C281.866 306.848 280.898 307.754 280.37 308.916C279.842 310.079 279.798 311.404 280.246 312.6C280.695 313.796 281.601 314.765 282.763 315.294C286.557 317.019 289.691 319.928 291.692 323.584M305.167 338.173L295.915 321.273M298.833 341.64C292.321 344.99 287.191 350.519 284.336 357.264C284.152 357.671 283.857 358.019 283.486 358.268C283.115 358.517 282.681 358.657 282.235 358.674C281.788 358.69 281.345 358.582 280.957 358.361C280.568 358.14 280.248 357.815 280.033 357.423L266.156 332.073C265.941 331.681 265.84 331.236 265.863 330.79C265.886 330.343 266.034 329.912 266.288 329.545C266.543 329.177 266.895 328.888 267.305 328.71C267.714 328.531 268.166 328.47 268.608 328.534C275.829 329.763 283.251 328.421 289.581 324.74L302.249 317.805C303.369 317.192 304.686 317.05 305.912 317.408C307.138 317.767 308.171 318.598 308.784 319.719L313.41 328.169C314.023 329.289 314.167 330.608 313.809 331.834C313.451 333.059 312.62 334.092 311.5 334.706L298.833 341.64Z" stroke="black" stroke-width="2" stroke-linecap="round" stroke-linejoin="round"/>
</svg>
